<svg xmlns="http://www.w3.org/2000/svg" width="512" height="512" viewBox="0 0 512 512" role="img" aria-label="RideNDine app icon">
  <defs>
    <linearGradient id="iconGradient" x1="0" y1="0" x2="1" y2="1">
      <stop offset="0%" stop-color="#19b7b1" />
      <stop offset="100%" stop-color="#ff7a18" />
    </linearGradient>
  </defs>
  <g transform="translate(96 64)">
    <path d="M160 0c-70.7 0-128 57.3-128 128 0 83.4 128 204 128 204s128-120.6 128-204C288 57.3 230.7 0 160 0z" fill="url(#iconGradient)" />
    <circle cx="160" cy="102" r="36" fill="#ffffff" />
    <rect x="146" y="74" width="12" height="56" rx="6" fill="#ff7a18" />
    <rect x="172" y="74" width="12" height="56" rx="6" fill="#19b7b1" />
    <path d="M86 162h148" stroke="#ffffff" stroke-width="16" stroke-linecap="round" />
    <path d="M102 208c20 16 40 24 58 24s38-8 58-24" stroke="#ffffff" stroke-width="16" stroke-linecap="round" fill="none" />
  </g>
  <g transform="translate(310 318)">
    <circle cx="36" cy="60" r="20" fill="#2b2b2b" />
    <circle cx="94" cy="60" r="20" fill="#2b2b2b" />
    <path d="M24 48h86l18-18" stroke="#ff7a18" stroke-width="12" stroke-linecap="round" fill="none" />
    <path d="M36 36c8-16 34-20 48-8" stroke="#19b7b1" stroke-width="10" stroke-linecap="round" fill="none" />
  </g>
</svg>
