<svg xmlns="http://www.w3.org/2000/svg" width="640" height="200" viewBox="0 0 640 200" role="img" aria-label="RideNDine logo">
  <defs>
    <linearGradient id="pinGradient" x1="0" y1="0" x2="1" y2="1">
      <stop offset="0%" stop-color="#19b7b1" />
      <stop offset="100%" stop-color="#ff7a18" />
    </linearGradient>
    <linearGradient id="wordmark" x1="0" y1="0" x2="1" y2="0">
      <stop offset="0%" stop-color="#0e8f8b" />
      <stop offset="100%" stop-color="#ff7a18" />
    </linearGradient>
  </defs>
  <g transform="translate(30 18)">
    <path d="M80 0c-38.7 0-70 31.3-70 70 0 45.7 70 112 70 112s70-66.3 70-112C150 31.3 118.7 0 80 0z" fill="url(#pinGradient)" />
    <path d="M42 64h76" stroke="#ffffff" stroke-width="10" stroke-linecap="round" />
    <path d="M48 92c12 10 24 14 32 14s20-4 32-14" stroke="#ffffff" stroke-width="10" stroke-linecap="round" fill="none" />
    <circle cx="80" cy="52" r="16" fill="#ffffff" />
    <rect x="70" y="44" width="6" height="18" rx="3" fill="#ff7a18" />
    <rect x="84" y="44" width="6" height="18" rx="3" fill="#19b7b1" />
  </g>
  <g transform="translate(210 68)">
    <text x="0" y="70" font-family="'Segoe UI', 'Helvetica Neue', sans-serif" font-size="72" font-weight="700" fill="url(#wordmark)">
      RideNDine
    </text>
    <text x="6" y="110" font-family="'Segoe UI', 'Helvetica Neue', sans-serif" font-size="18" letter-spacing="2" fill="#5b5b5b">
      HOME CHEF DELIVERY
    </text>
  </g>
</svg>
