<svg xmlns="http://www.w3.org/2000/svg" viewBox="0 0 640 220" role="img" aria-label="Ride N Dine logo">
  <defs>
    <linearGradient id="rideGradient" x1="0" x2="1" y1="0" y2="1">
      <stop offset="0%" stop-color="#0f766e" />
      <stop offset="45%" stop-color="#14b8a6" />
      <stop offset="100%" stop-color="#f97316" />
    </linearGradient>
    <linearGradient id="clocheGradient" x1="0" x2="1" y1="0" y2="1">
      <stop offset="0%" stop-color="#fb923c" />
      <stop offset="100%" stop-color="#f97316" />
    </linearGradient>
  </defs>
  <g transform="translate(20 20)">
    <circle cx="90" cy="90" r="70" fill="#0f766e" opacity="0.15" />
    <path d="M30 100c10-40 40-60 80-60s70 20 80 60H30z" fill="url(#clocheGradient)" />
    <rect x="70" y="38" width="40" height="12" rx="6" fill="#f59e0b" />
    <rect x="70" y="55" width="4" height="28" rx="2" fill="#fff" />
    <rect x="84" y="55" width="4" height="28" rx="2" fill="#fff" />
    <rect x="98" y="55" width="4" height="28" rx="2" fill="#fff" />
    <path d="M20 110c30 20 70 20 100 0s70-20 100 0" fill="none" stroke="#14b8a6" stroke-width="12" stroke-linecap="round" />
    <circle cx="170" cy="120" r="20" fill="#f97316" />
    <rect x="160" y="110" width="30" height="8" rx="4" fill="#0f172a" />
    <circle cx="160" cy="142" r="10" fill="#0f172a" />
  </g>
  <text x="240" y="125" font-family="'Segoe UI', 'Inter', sans-serif" font-size="68" font-weight="700" fill="url(#rideGradient)">RideNDine</text>
  <text x="240" y="165" font-family="'Segoe UI', 'Inter', sans-serif" font-size="20" fill="#0f766e">Home-chef deliveries made easy</text>
</svg>
